<svg xmlns="http://www.w3.org/2000/svg" viewBox="0 0 115.44 139.76"><defs><style>.cls-1,.cls-2,.cls-3{fill:#e94b4d;}.cls-2,.cls-3{stroke:#e94b4d;stroke-miterlimit:10;}.cls-2{stroke-width:0.25px;}</style></defs><g id="Layer_2" data-name="Layer 2"><g id="Layer_1-2" data-name="Layer 1"><path class="cls-1" d="M59.35,138C36,83,28.84,66.1,5.51,11.1"/><polygon class="cls-1" points="57.7 138.71 0.27 13.32 10.75 8.87 61 137.3 57.7 138.71"/><circle class="cls-2" cx="5.81" cy="11.97" r="5.68"/><path class="cls-1" d="M79.39,139.37C92.6,81.1,96.67,63.19,109.88,4.92"/><polygon class="cls-1" points="77.64 138.97 104.33 3.66 115.44 6.18 81.14 139.76 77.64 138.97"/><circle class="cls-2" cx="109.62" cy="5.81" r="5.68"/><path class="cls-3" d="M59.35,50.46c-8.23,0-15.72,3.55-20.86,6.08a8,8,0,0,0,7.89,6.89h26a8,8,0,0,0,7.83-6.89C75.07,54,67.58,50.46,59.35,50.46Z"/><path class="cls-3" d="M89.27,55.45a1.79,1.79,0,0,1-.18.91,1.84,1.84,0,0,1-.61.69,1.76,1.76,0,0,1-1,.25c-1.21,0-6.69-2.7-7.19-2.94s-7.09-3.22-10.07-4.13c.08-4.94,3.79-8.85,6.87-10.32,7.44,5.48,12.18,12.87,12.18,15.54Z"/><path class="cls-3" d="M75.25,38.65a14.2,14.2,0,0,0-7,11,35.14,35.14,0,0,0-8.89-1.2c-.67,0-1.33,0-2,.07.25-7.89,3.54-13.1,5.76-14.73h0a30.83,30.83,0,0,1,12.12,4.84Z"/><path class="cls-3" d="M60.49,33.54c-2.51,2.79-5,8.08-5.12,15.18h0A45.2,45.2,0,0,0,43.62,52a20.67,20.67,0,0,1,2.91-15.15,27.88,27.88,0,0,1,12.82-3.32l1.14,0Z"/><path class="cls-3" d="M41.77,52.78c-.47.21-2.74,1.27-3.36,1.58s-7,3.43-8.19,2.69h0a1.76,1.76,0,0,1-.61-.69,1.81,1.81,0,0,1-.18-.91c0-2.86,5.43-11.14,13.79-16.66a21.74,21.74,0,0,0-1.45,14Z"/></g></g></svg>