<svg xmlns="http://www.w3.org/2000/svg" viewBox="0 0 421.3 183.48"><defs><style>.cls-1,.cls-2,.cls-3,.cls-4{fill:#342d2e;}.cls-2,.cls-3,.cls-4{stroke:#342d2e;stroke-miterlimit:10;}.cls-2{stroke-width:0.25px;}.cls-3{font-size:116.14px;font-family:MaturaMTScriptCapitals, Matura MT Script Capitals;}</style></defs><g id="Layer_2" data-name="Layer 2"><g id="Layer_1-2" data-name="Layer 1"><path class="cls-1" d="M264.07,138c-23.33-55-30.51-71.9-53.84-126.9"/><polygon class="cls-1" points="262.42 138.71 204.99 13.32 215.47 8.87 265.72 137.3 262.42 138.71"/><circle class="cls-2" cx="210.53" cy="11.97" r="5.68"/><text class="cls-3" transform="translate(0.5 128.2) scale(1.12 1)">Hita ka</text><path class="cls-1" d="M284.11,139.37,314.61,4.92"/><polygon class="cls-1" points="282.36 138.97 309.05 3.66 320.16 6.18 285.86 139.76 282.36 138.97"/><circle class="cls-2" cx="314.34" cy="5.81" r="5.68"/><path class="cls-4" d="M266.75,60.54c-8.23,0-15.72,3.54-20.86,6.07a8,8,0,0,0,7.9,6.89h26a7.93,7.93,0,0,0,7.82-6.88c-5.14-2.54-12.63-6.08-20.86-6.08Z"/><path class="cls-4" d="M296.67,65.53a1.75,1.75,0,0,1-.17.9,1.72,1.72,0,0,1-.62.69,1.81,1.81,0,0,1-1,.26c-1.21,0-6.7-2.7-7.19-2.94s-7.09-3.22-10.08-4.13c.08-5,3.79-8.86,6.88-10.32,7.43,5.47,12.17,12.86,12.17,15.54Z"/><path class="cls-4" d="M282.66,48.72a14.21,14.21,0,0,0-7,11,35.61,35.61,0,0,0-8.9-1.2c-.67,0-1.32,0-2,.07.25-7.88,3.54-13.09,5.75-14.73h0a30.87,30.87,0,0,1,12.13,4.84Z"/><path class="cls-4" d="M267.89,43.61c-2.5,2.8-5,8.08-5.12,15.18h0A45.63,45.63,0,0,0,251,62.05a20.65,20.65,0,0,1,2.91-15.14,27.72,27.72,0,0,1,12.81-3.32l1.14,0Z"/><path class="cls-4" d="M249.17,62.85c-.47.21-2.73,1.28-3.36,1.59s-7,3.43-8.19,2.68h0a1.77,1.77,0,0,1-.61-.69,1.67,1.67,0,0,1-.17-.91c0-2.86,5.42-11.13,13.79-16.66a21.75,21.75,0,0,0-1.46,14Z"/></g></g></svg>