<svg xmlns="http://www.w3.org/2000/svg" viewBox="0 0 421.3 183.48"><defs><style>.cls-1,.cls-2,.cls-3,.cls-4{fill:#fff;}.cls-2,.cls-3,.cls-4{stroke:#fff;}.cls-2,.cls-4{stroke-miterlimit:10;}.cls-2{stroke-width:0.25px;}.cls-3{font-size:116.14px;font-family:MaturaMTScriptCapitals, Matura MT Script Capitals;}</style></defs><g id="Layer_2" data-name="Layer 2"><g id="Layer_1-2" data-name="Layer 1"><path class="cls-1" d="M264.07,138c-23.33-55-30.51-71.9-53.84-126.9"/><polygon class="cls-1" points="262.42 138.71 204.99 13.32 215.47 8.87 265.72 137.3 262.42 138.71"/><circle class="cls-2" cx="210.53" cy="11.97" r="5.68"/><text class="cls-3" transform="translate(0.5 128.2) scale(1.12 1)">Hita ka</text><path class="cls-1" d="M284.11,139.37,314.61,4.92"/><polygon class="cls-1" points="282.36 138.97 309.05 3.66 320.16 6.18 285.86 139.76 282.36 138.97"/><circle class="cls-2" cx="314.34" cy="5.81" r="5.68"/><path class="cls-4" d="M266.52,53.91c-8.26,0-15.78,3.55-20.93,6.09a8,8,0,0,0,7.92,6.91h26.08A7.95,7.95,0,0,0,287.44,60c-5.15-2.54-12.67-6.09-20.92-6.09Z"/><path class="cls-4" d="M296.53,58.91a1.7,1.7,0,0,1-.17.91,1.79,1.79,0,0,1-.62.69,1.85,1.85,0,0,1-1,.26c-1.21,0-6.71-2.71-7.21-3s-7.12-3.23-10.11-4.15c.08-5,3.8-8.88,6.9-10.35,7.46,5.49,12.21,12.91,12.21,15.59Z"/><path class="cls-4" d="M282.47,42.05a14.24,14.24,0,0,0-7,11.05,35.83,35.83,0,0,0-8.92-1.2c-.68,0-1.34,0-2,.07.25-7.91,3.56-13.13,5.78-14.77h0a30.87,30.87,0,0,1,12.16,4.85Z"/><path class="cls-4" d="M267.66,36.93c-2.51,2.8-5,8.1-5.14,15.22h0a45.56,45.56,0,0,0-11.78,3.28,20.7,20.7,0,0,1,2.92-15.2,27.9,27.9,0,0,1,12.86-3.33q.57,0,1.14,0Z"/><path class="cls-4" d="M248.88,56.23c-.47.21-2.75,1.28-3.38,1.59s-7,3.44-8.21,2.69h0a1.69,1.69,0,0,1-.61-.69,1.81,1.81,0,0,1-.18-.91c0-2.87,5.44-11.18,13.84-16.72a21.82,21.82,0,0,0-1.46,14Z"/></g></g></svg>