<svg xmlns="http://www.w3.org/2000/svg" width="17" height="17" fill="none" viewBox="0 0 17 17"><path fill="#616060" d="M9.80769 1.30769C9.80769 0.584375 9.22332 0 8.5 0C7.77668 0 7.19231 0.584375 7.19231 1.30769V7.19231H1.30769C0.584375 7.19231 0 7.77668 0 8.5C0 9.22332 0.584375 9.80769 1.30769 9.80769H7.19231V15.6923C7.19231 16.4156 7.77668 17 8.5 17C9.22332 17 9.80769 16.4156 9.80769 15.6923V9.80769H15.6923C16.4156 9.80769 17 9.22332 17 8.5C17 7.77668 16.4156 7.19231 15.6923 7.19231H9.80769V1.30769Z"/></svg>