<svg width="29" height="29" viewBox="0 0 29 29" fill="none" xmlns="http://www.w3.org/2000/svg">
<path d="M23.2328 11.8521C23.1914 14.3848 22.3309 16.7109 20.9146 18.5863L27.7873 25.6915C28.4659 26.3925 28.4476 27.5126 27.7464 28.1911C27.0453 28.8695 25.925 28.8512 25.2464 28.1502L18.3738 21.045C16.4526 22.4045 14.0992 23.1829 11.5661 23.1415C5.22491 23.0379 0.170793 17.8169 0.274385 11.477C0.377977 5.13705 5.59997 0.0839538 11.9411 0.187566C18.2823 0.291178 23.3364 5.51218 23.2328 11.8521ZM11.6238 19.6101C16.0113 19.6818 19.6291 16.181 19.7007 11.7944C19.7724 7.40776 16.2709 3.79063 11.8834 3.71894C7.49594 3.64725 3.87813 7.14805 3.80645 11.5347C3.73477 15.9213 7.23628 19.5384 11.6238 19.6101Z" fill="#616060" fill-opacity="0.64"/>
</svg>
