<svg xmlns="http://www.w3.org/2000/svg" width="30" height="27" fill="none" viewBox="0 0 30 27"><path fill="#D9D9D9" d="M5.26245 14.3872C5.26085 14.3786 5.2594 14.3699 5.2581 14.3611L3.42795 3.3801C3.24713 2.29518 2.30847 1.5 1.2086 1.5H0.749989C0.335781 1.5 0 1.16421 0 0.75C0 0.335786 0.335781 0 0.749989 0H1.2086C2.9963 0 4.52847 1.26044 4.88281 3H29.2496C29.7478 3 30.1076 3.47693 29.9707 3.95604L26.9707 14.456C26.8787 14.778 26.5845 15 26.2496 15H6.88524L7.07189 16.1199C7.25271 17.2048 8.19137 18 9.29124 18H26.2496C26.6638 18 26.9996 18.3358 26.9996 18.75C26.9996 19.1642 26.6638 19.5 26.2496 19.5H9.29124C7.45812 19.5 5.89368 18.1747 5.59232 16.3665L5.26245 14.3872V14.3872ZM5.13527 4.5L6.63524 13.5H25.6839L28.2553 4.5H5.13527ZM8.99986 27C7.34303 27 5.99991 25.6569 5.99991 24C5.99991 22.3431 7.34303 21 8.99986 21C10.6567 21 11.9998 22.3431 11.9998 24C11.9998 25.6569 10.6567 27 8.99986 27ZM8.99986 25.5C9.82828 25.5 10.4998 24.8284 10.4998 24C10.4998 23.1716 9.82828 22.5 8.99986 22.5C8.17145 22.5 7.49989 23.1716 7.49989 24C7.49989 24.8284 8.17145 25.5 8.99986 25.5ZM22.4997 27C20.8428 27 19.4997 25.6569 19.4997 24C19.4997 22.3431 20.8428 21 22.4997 21C24.1565 21 25.4996 22.3431 25.4996 24C25.4996 25.6569 24.1565 27 22.4997 27ZM22.4997 25.5C23.3281 25.5 23.9996 24.8284 23.9996 24C23.9996 23.1716 23.3281 22.5 22.4997 22.5C21.6712 22.5 20.9997 23.1716 20.9997 24C20.9997 24.8284 21.6712 25.5 22.4997 25.5Z"/></svg>